<svg width="489px" height="225px" viewBox="0 0 489 225" version="1.1" xmlns="http://www.w3.org/2000/svg" xmlns:xlink="http://www.w3.org/1999/xlink">
    <g id="Page-1" stroke="none" stroke-width="1" fill="none" fill-rule="evenodd">
        <g id="Home" transform="translate(-477.000000, -353.000000)" fill="#FFFFFF">
            <g id="Landing-Section" transform="translate(0.000000, -1.000000)">
                <g id="Logo-Alt" transform="translate(720.000000, 451.500000) rotate(-5.000000) translate(-720.000000, -451.500000) translate(479.000000, 344.000000)">
                    <path d="M60.9304952,19.3002611 C60.9304952,31.1436031 50.5921079,44.1932115 38.603978,48.0313316 C39.8137893,50.3342037 40.1437378,53.1853786 40.1437378,56.2558747 C40.1437378,63.8224543 36.2943383,72.8146214 36.2943383,78.1879896 C36.2943383,80.4908616 36.4043211,83.0130548 38.2740295,83.0130548 C40.1437378,83.0130548 42.2334118,81.2584856 43.7731716,78.6266319 C43.7731716,78.6266319 44.8730001,78.5169713 43.9931373,80.0522193 C43.0032917,81.9164491 40.5836692,84 38.1640466,84 C32.7748873,84 31.0151618,80.0522193 31.0151618,76.5430809 C31.0151618,68.7571802 34.6445956,58.5587467 34.6445956,53.1853786 C34.6445956,51.54047 34.5346128,50.1148825 34.4246299,48.9086162 C33.5447672,49.0182768 32.6649045,49.1279373 31.7850417,49.1279373 C28.9254878,49.1279373 26.8358138,48.2506527 26.8358138,46.1671018 C26.8358138,44.1932115 28.9254878,43.4255875 30.1352991,43.4255875 C32.994853,43.4255875 35.084527,44.1932115 36.6242868,45.5091384 C43.3332403,40.0261097 53.2316962,27.0861619 53.2316962,16.6684073 C53.2316962,13.926893 51.911902,11.9530026 49.4922795,11.9530026 C43.8831545,11.9530026 37.0642182,17.4360313 30.3552647,25.2219321 L30.3552647,25.6605744 C30.5752304,31.9112272 24.9661054,47.7023499 16.3874436,63.383812 C12.0981128,71.1697128 6.37900491,79.613577 1.75972549,79.613577 C0.769879903,79.613577 0,78.7362924 0,77.310705 C0,72.4856397 8.68864462,53.843342 19.7969118,37.5039164 C22.3265172,30.2663185 23.9762598,24.0156658 23.9762598,20.0678851 C23.9762598,17.1070496 23.5363285,15.3524804 22.3265172,15.3524804 C19.2469976,15.3524804 9.01859315,29.2793734 9.01859315,32.3498695 C9.01859315,32.3498695 8.24871325,32.45953 8.24871325,31.4725849 C8.24871325,28.9503916 18.3671348,14.3655352 22.3265172,14.3655352 C24.7461397,14.3655352 29.3654192,15.5718016 30.2452819,23.9060052 C37.0642182,16.229765 43.9931373,10.9660574 50.0421937,10.9660574 C57.3010614,10.9660574 60.9304952,14.3655352 60.9304952,19.3002611 Z M10.3383873,61.0809399 C13.1979412,54.6109661 15.9475123,47.921671 18.257152,41.7806789 C8.46867893,57.0234987 0.98984559,73.2532637 0.98984559,77.5300261 C0.98984559,78.4073107 1.42977696,78.6266319 1.64974265,78.6266319 C2.85955393,78.6266319 6.5989706,69.7441253 10.3383873,61.0809399 Z M31.7850417,48.1409922 C32.3349559,48.1409922 33.1048358,47.8120104 34.0946814,47.3733681 C33.4347844,45.3994778 32.2249731,44.4125326 30.1352991,44.4125326 C29.3654192,44.4125326 27.8256594,44.8511749 27.8256594,46.1671018 C27.8256594,47.7023499 29.475402,48.1409922 31.7850417,48.1409922 Z M78.3830108,59.5456919 C78.7129594,59.5456919 78.8229422,59.8746736 78.8229422,59.8746736 L78.1630451,60.9712794 C75.3034912,65.7963446 72.2239716,67.2219321 68.4845549,67.2219321 C68.1546064,67.2219321 67.8246579,67.2219321 67.4947093,67.1122715 C64.3052069,72.7049608 59.6859275,76.7624021 55.2866137,76.7624021 C49.8974544,76.7624021 46.0480549,73.9112272 46.0480549,68.6475196 C46.0480549,58.229765 55.2866137,49.8955614 61.0057216,47.921671 C62.2155329,45.618799 64.0852412,44.3028721 66.1749152,44.3028721 C69.6943662,44.3028721 71.7840402,47.4830287 71.7840402,51.9791123 C71.7840402,56.8041775 70.3542633,61.9582245 68.0446236,66.2349869 L68.4845549,66.2349869 C72.0040059,66.2349869 74.4236285,65.1383812 77.3931652,60.4229765 C77.7231138,59.8746736 78.0530623,59.5456919 78.3830108,59.5456919 Z M66.1749152,45.2898172 C64.7451383,45.2898172 63.4253441,46.0574413 62.4354986,47.4830287 C62.7654471,47.3733681 63.0953956,47.3733681 63.4253441,47.3733681 C66.9447951,47.3733681 67.6046922,49.3472585 67.6046922,50.1148825 C66.0649324,50.1148825 63.2053785,51.6501305 60.4558074,54.3916449 L60.4558074,54.9399478 C60.4558074,60.2036554 62.9854128,65.1383812 67.054778,66.1253264 C69.3644177,61.848564 70.7941946,56.694517 70.7941946,51.9791123 C70.7941946,48.5796345 69.3644177,45.2898172 66.1749152,45.2898172 Z M55.2866137,75.7754569 C59.3559789,75.7754569 63.535327,72.0469974 66.5048638,67.002611 C62.3255157,65.7963446 59.5759446,60.9712794 59.4659618,55.3785901 C55.9465108,59.3263708 52.8669912,65.1383812 52.8669912,72.156658 C52.8669912,74.7885117 53.9668196,75.7754569 55.2866137,75.7754569 Z M116.84225,59.5456919 C117.172198,59.5456919 117.282181,59.8746736 117.282181,59.8746736 L116.622284,60.9712794 C115.30249,63.0548303 112.552919,67.2219321 107.493708,67.2219321 L106.943794,67.2219321 C104.304205,72.3759791 100.124857,76.7624021 94.735698,76.7624021 C90.3363843,76.7624021 86.1570363,74.0208877 86.1570363,65.5770235 C86.1570363,64.6997389 86.2670191,63.8224543 86.377002,62.8355091 C80.6578941,68.8668407 72.4091809,73.4725849 65.8102103,73.4725849 C65.260296,73.4725849 65.0403304,73.3629243 65.0403304,73.0339426 C65.0403304,72.8146214 65.1503132,72.7049608 65.260296,72.5953003 C72.4091809,72.5953003 80.9878426,67.5509138 86.5969676,60.8616188 C89.7864701,41.0130548 110.133296,0 123.001289,0 C125.200946,0 126.300774,1.64490862 126.300774,3.39947781 C126.300774,14.0365535 111.013159,32.7885117 95.3955951,52.8563969 C93.9658181,58.997389 93.0859554,64.8093995 93.0859554,69.6344648 C93.0859554,72.8146214 93.9658181,75.7754569 95.5055779,75.7754569 C99.5749431,75.7754569 103.31436,71.7180157 105.733982,67.002611 C101.884583,66.2349869 99.3549775,62.5065274 99.3549775,56.694517 C99.3549775,51.7597911 101.7746,48.689295 105.294051,48.689295 C108.373571,48.689295 110.243279,50.8825065 110.243279,55.3785901 C110.243279,58.229765 109.253433,62.2872063 107.383725,66.2349869 L107.493708,66.2349869 C112.003004,66.2349869 114.53261,62.5065274 115.852404,60.4229765 C116.182352,59.8746736 116.512301,59.5456919 116.84225,59.5456919 Z M123.111272,0.98694517 C115.30249,0.98694517 101.7746,27.7441253 95.9455093,50.6631854 C110.903176,31.2532637 125.310928,13.5979112 125.310928,3.39947781 C125.310928,2.19321149 124.541049,0.98694517 123.111272,0.98694517 Z M100.344823,56.694517 C100.344823,61.9582245 102.54448,65.4673629 106.283897,66.1253264 C108.153605,62.2872063 109.253433,58.229765 109.253433,55.3785901 C109.253433,51.4308094 107.823656,49.6762402 105.294051,49.6762402 C102.324514,49.6762402 100.344823,52.4177546 100.344823,56.694517 Z M155.191505,59.5456919 C155.521454,59.5456919 155.631437,59.8746736 155.631437,59.8746736 L154.97154,60.9712794 C152.221969,65.4673629 146.502861,75.9947781 137.704233,75.9947781 C132.645023,75.9947781 128.465674,73.8015666 127.14588,68.4281984 C119.887013,72.8146214 111.748282,75.9947781 104.159466,75.9947781 C103.719535,75.9947781 103.499569,75.7754569 103.499569,75.4464752 C103.499569,75.227154 103.609552,75.1174935 103.719535,75.0078329 C111.418334,75.0078329 119.667047,71.7180157 126.925915,67.3315927 C126.815932,66.4543081 126.705949,65.4673629 126.705949,64.4804178 C126.705949,52.1984334 137.484268,42.6579634 143.863273,42.6579634 C146.502861,42.6579634 147.162758,44.5221932 147.162758,46.386423 C147.162758,50.6631854 141.663616,57.6814621 133.744851,63.9321149 C133.634868,64.4804178 133.634868,65.1383812 133.634868,65.7963446 C133.634868,71.9373368 135.064645,75.0078329 137.814216,75.0078329 C145.732981,75.0078329 151.342106,64.8093995 154.20166,60.4229765 C154.531608,59.8746736 154.861557,59.5456919 155.191505,59.5456919 Z M143.863273,43.6449086 C141.223684,43.6449086 134.954662,52.1984334 133.854834,62.5065274 C141.113701,56.694517 146.172912,50.2245431 146.172912,46.386423 C146.172912,44.8511749 145.513015,43.6449086 143.863273,43.6449086 Z M196.840247,59.5456919 C197.170195,59.5456919 197.280178,59.8746736 197.280178,59.8746736 L196.620281,60.9712794 C194.310641,64.6997389 188.701516,76.2140992 181.552631,76.2140992 C175.723541,76.2140992 171.984124,73.9112272 171.984124,68.537859 C171.984124,59.9843342 181.222683,52.1984334 181.222683,46.8250653 C181.222683,45.9477807 180.892734,45.5091384 179.792906,45.5091384 C177.703232,45.5091384 174.073798,48.1409922 170.774313,48.4699739 C167.914759,58.8877285 155.706663,74.5691906 143.278602,74.5691906 C142.508722,74.5691906 141.848825,74.5691906 141.848825,74.0208877 C141.848825,73.691906 142.068791,73.5822454 142.068791,73.5822454 L143.278602,73.5822454 C155.156749,73.5822454 166.924913,58.4490862 169.784467,48.4699739 C168.024742,48.2506527 166.374999,46.9347258 166.374999,44.4125326 C166.374999,42.3289817 167.474827,41.3420366 169.014587,41.3420366 C170.66433,41.3420366 171.43421,42.767624 171.43421,44.3028721 C171.43421,45.2898172 171.324227,46.2767624 170.994278,47.3733681 C174.293764,46.9347258 177.2633,44.1932115 181.222683,44.1932115 C184.852117,44.1932115 187.271739,45.8381201 187.271739,49.2375979 C187.271739,54.3916449 178.363129,62.3968668 178.363129,70.8407311 C178.363129,73.8015666 179.57294,75.227154 181.772597,75.227154 C188.041619,75.227154 193.540761,64.151436 195.850401,60.4229765 C196.18035,59.8746736 196.510298,59.5456919 196.840247,59.5456919 Z M167.364845,44.4125326 C167.364845,46.386423 168.684639,47.3733681 170.004433,47.4830287 C170.334381,46.2767624 170.444364,45.2898172 170.444364,44.3028721 C170.444364,43.0966057 169.89445,42.3289817 169.014587,42.3289817 C167.804776,42.3289817 167.364845,43.2062663 167.364845,44.4125326 Z M227.490703,39.6971279 C230.900172,39.6971279 232,41.3420366 232,43.4255875 C232,45.1801567 231.010154,45.8381201 230.570223,45.8381201 C230.350257,45.8381201 230.130292,45.7284595 230.130292,45.5091384 C230.130292,45.5091384 231.010154,45.0704961 231.010154,43.4255875 C231.010154,41.7806789 230.240275,40.6840731 227.490703,40.6840731 C225.840961,40.6840731 224.081235,41.4516971 222.101544,42.2193211 C218.032179,50.9921671 212.533037,63.9321149 212.533037,72.2663185 C212.533037,75.6657963 213.742848,75.7754569 214.622711,75.7754569 C220.561784,75.7754569 227.270738,62.0678851 228.370566,60.4229765 C228.700515,59.8746736 229.030463,59.5456919 229.360412,59.5456919 C229.69036,59.5456919 229.800343,59.8746736 229.800343,59.8746736 L229.140446,60.9712794 C226.170909,65.6866841 221.111699,76.7624021 214.512728,76.7624021 C209.123569,76.7624021 205.604118,74.2402089 205.604118,69.305483 C205.604118,66.6736292 206.48398,62.9451697 207.913757,58.8877285 C202.964529,66.4543081 191.746279,76.8720627 184.377429,76.8720627 C183.827515,76.8720627 183.607549,76.6527415 183.607549,76.3237598 C183.607549,76.1044386 183.717532,75.9947781 183.827515,75.8851175 C192.846108,75.8851175 206.373998,61.4099217 209.783466,53.843342 C210.993277,50.6631854 212.423054,47.4830287 213.742848,44.4125326 C210.443363,44.4125326 207.803774,42.9869452 207.803774,39.9164491 C207.803774,37.8328982 208.79362,37.1749347 209.233551,37.1749347 C209.5635,37.1749347 209.673483,37.3942559 209.673483,37.613577 C209.673483,37.613577 208.79362,38.381201 208.79362,39.9164491 C208.903603,42.4386423 210.993277,43.4255875 213.852831,43.4255875 L214.182779,43.4255875 C217.372282,36.4073107 220.231836,30.8146214 220.231836,30.0469974 C220.231836,30.0469974 221.221681,29.7180157 222.651458,29.7180157 C224.851115,29.7180157 226.060926,31.0339426 226.060926,33.1174935 C226.060926,33.7754569 224.631149,36.7362924 222.651458,41.0130548 C224.301201,40.2454308 225.950944,39.6971279 227.490703,39.6971279 Z" id="Robert"></path>
                    <path d="M308.70432,87.8861825 L308.70432,89.5898862 L297.046051,89.5898862 L297.046051,87.8861825 L302.235625,87.8861825 L302.235625,70.7750714 C302.016346,71.0713692 301.675251,71.3923536 301.212329,71.7380343 C300.749407,72.0837151 300.225582,72.4108723 299.640838,72.7195158 C299.056094,73.0281593 298.459178,73.287416 297.85007,73.4972936 C297.240962,73.7071712 296.692773,73.8121084 296.205486,73.8121084 L296.205486,71.9602566 C296.814594,71.9602566 297.460239,71.7935916 298.14244,71.4602566 C298.824641,71.1269216 299.464195,70.7503821 300.061121,70.3306269 C300.658046,69.9108717 301.157507,69.5096412 301.559519,69.1269232 C301.96153,68.7442053 302.186896,68.5158125 302.235625,68.441738 L304.06294,68.441738 L304.06294,87.8861825 L308.70432,87.8861825 Z M309.558332,77.441738 C309.558332,76.1824725 309.78979,75.0096447 310.252712,73.9232195 C310.715634,72.8367943 311.361279,71.8861866 312.189665,71.0713677 C313.018052,70.2565488 313.980428,69.6145799 315.076823,69.1454417 C316.173217,68.6763036 317.367051,68.441738 318.65836,68.441738 C319.998397,68.441738 321.228777,68.6886492 322.349536,69.1824788 C323.470294,69.6763084 324.444852,70.3800051 325.273239,71.2935899 C326.101626,72.2071747 326.747271,73.3306203 327.210193,74.6639603 C327.673115,75.9973003 327.904573,77.4911125 327.904573,79.1454417 C327.904573,81.9108877 327.673115,84.3059254 327.210193,86.3306269 C326.747271,88.3553284 326.101626,90.034324 325.273239,91.367664 C324.444852,92.701004 323.452021,93.6886484 322.294716,94.3306269 C321.137411,94.9726054 319.864394,95.2935899 318.475628,95.2935899 C316.721397,95.2935899 315.168195,94.8368043 313.815976,93.9232195 C312.463756,93.0096347 311.458743,91.7627336 310.800906,90.1824788 L312.080027,89.1824788 C312.567313,90.5158188 313.395687,91.5898821 314.565175,92.404701 C315.734662,93.2195199 317.038133,93.6269232 318.475628,93.6269232 C319.620751,93.6269232 320.66231,93.3491482 321.600337,92.7935899 C322.538363,92.2380316 323.336282,91.4232249 323.994119,90.3491454 C324.651956,89.275066 325.16969,87.9602643 325.547337,86.404701 C325.924984,84.8491377 326.113804,83.0713777 326.113804,81.0713677 C325.845797,81.8614951 325.455973,82.5837101 324.944323,83.2380343 C324.432672,83.8923586 323.841846,84.4540814 323.171827,84.9232195 C322.501809,85.3923577 321.764799,85.7565516 320.960776,86.0158121 C320.156754,86.2750727 319.316197,86.404701 318.439082,86.404701 C317.196502,86.404701 316.039214,86.1701354 314.967184,85.7009973 C313.895154,85.2318592 312.957142,84.5898903 312.153119,83.7750714 C311.349097,82.9602525 310.715634,82.0096447 310.252712,80.9232195 C309.78979,79.8367943 309.558332,78.6763121 309.558332,77.441738 Z M318.621813,70.1084047 C317.622876,70.1084047 316.678773,70.2997608 315.789476,70.6824788 C314.900178,71.0651967 314.126622,71.5898829 313.468786,72.2565529 C312.810949,72.9232229 312.287124,73.7009929 311.897295,74.5898862 C311.507466,75.4787795 311.312554,76.4293873 311.312554,77.441738 C311.312554,78.4540888 311.507466,79.4046966 311.897295,80.2935899 C312.287124,81.1824832 312.810949,81.9602532 313.468786,82.6269232 C314.126622,83.2935932 314.900178,83.8244521 315.789476,84.2195158 C316.678773,84.6145795 317.622876,84.8121084 318.621813,84.8121084 C319.620751,84.8121084 320.564854,84.6145795 321.454151,84.2195158 C322.343449,83.8244521 323.117005,83.2935932 323.774841,82.6269232 C324.432678,81.9602532 324.956503,81.1824832 325.346332,80.2935899 C325.736161,79.4046966 325.931073,78.4540888 325.931073,77.441738 C325.931073,76.4540788 325.736161,75.5158166 325.346332,74.6269232 C324.956503,73.7380299 324.432678,72.9602599 323.774841,72.2935899 C323.117005,71.6269199 322.343449,71.096061 321.454151,70.7009973 C320.564854,70.3059336 319.620751,70.1084047 318.621813,70.1084047 Z M347.872298,82.404701 C347.872298,83.5405092 347.628658,84.5651903 347.141372,85.4787751 C346.654086,86.3923599 346.00235,87.1763027 345.186145,87.8306269 C344.369941,88.4849512 343.413655,88.9849462 342.317261,89.3306269 C341.220867,89.6763077 340.075761,89.8491454 338.881909,89.8491454 C337.5906,89.8491454 336.402858,89.6454438 335.318645,89.2380343 C334.234433,88.8306249 333.308603,88.2874204 332.541127,87.6084047 C331.773651,86.929389 331.176734,86.1331006 330.750358,85.2195158 C330.323983,84.305931 330.110798,83.3306321 330.110798,82.2935899 C330.110798,81.429388 330.269164,80.6269269 330.5859,79.8861825 C330.902636,79.145438 331.322914,78.4849508 331.846747,77.904701 C332.37058,77.3244512 332.961406,76.830629 333.619243,76.4232195 C334.277079,76.0158101 334.947088,75.7009984 335.629289,75.4787751 C334.995817,75.2565517 334.404991,74.9602584 333.856794,74.5898862 C333.308596,74.219514 332.821317,73.7997651 332.394942,73.3306269 C331.968566,72.8614888 331.633562,72.3306299 331.389919,71.7380343 C331.146275,71.1454388 331.024456,70.5158154 331.024456,69.8491454 C331.024456,68.7874117 331.262004,67.8491495 331.737108,67.0343306 C332.212213,66.2195117 332.827402,65.5343334 333.582696,64.9787751 C334.33799,64.4232167 335.19682,64.0034679 336.15921,63.7195158 C337.121601,63.4355638 338.077886,63.2935899 339.028094,63.2935899 C339.978303,63.2935899 340.928497,63.4355638 341.878705,63.7195158 C342.828914,64.0034679 343.681652,64.4232167 344.436946,64.9787751 C345.19224,65.5343334 345.80743,66.213339 346.282534,67.0158121 C346.757638,67.8182853 346.995187,68.7503747 346.995187,69.8121084 C346.995187,70.5034699 346.867276,71.139266 346.611451,71.7195158 C346.355625,72.2997656 346.020621,72.8306245 345.606428,73.3121084 C345.192234,73.7935923 344.698864,74.219514 344.126303,74.5898862 C343.553741,74.9602584 342.962915,75.2565517 342.353807,75.4787751 C343.109101,75.7503814 343.827838,76.1022297 344.510039,76.5343306 C345.19224,76.9664316 345.776975,77.4787721 346.264261,78.0713677 C346.751547,78.6639632 347.141371,79.3244504 347.433742,80.0528492 C347.726114,80.7812479 347.872298,81.5651906 347.872298,82.404701 Z M346.044983,82.2565529 C346.044983,81.3182766 345.831799,80.4787788 345.405423,79.7380343 C344.979047,78.9972899 344.424767,78.3738393 343.742567,77.867664 C343.060366,77.3614886 342.298992,76.9726036 341.458423,76.7009973 C340.617854,76.429391 339.783389,76.2935899 338.955002,76.2935899 C338.102251,76.2935899 337.261694,76.4355638 336.433307,76.7195158 C335.604921,77.0034679 334.86182,77.4046984 334.203983,77.9232195 C333.546147,78.4417406 333.01014,79.071364 332.595946,79.8121084 C332.181753,80.5528529 331.974659,81.3800051 331.974659,82.2935899 C331.974659,83.2318662 332.187844,84.0651912 332.614219,84.7935899 C333.040595,85.5219886 333.594875,86.1392664 334.277076,86.6454417 C334.959277,87.1516171 335.72065,87.5405021 336.561219,87.8121084 C337.401788,88.0837147 338.236254,88.2195158 339.064641,88.2195158 C339.893028,88.2195158 340.727493,88.0775419 341.568062,87.7935899 C342.408631,87.5096379 343.157823,87.1084073 343.815659,86.5898862 C344.473496,86.0713651 345.009503,85.4479145 345.423696,84.7195158 C345.83789,83.9911171 346.044983,83.1701377 346.044983,82.2565529 Z M332.888317,69.9232195 C332.888317,70.7133469 333.077137,71.404698 333.454784,71.9972936 C333.832431,72.5898892 334.313619,73.0960569 334.898363,73.5158121 C335.483107,73.9355673 336.134842,74.250379 336.85359,74.4602566 C337.572337,74.6701342 338.284983,74.7750714 338.991548,74.7750714 C339.698113,74.7750714 340.41685,74.6639614 341.14778,74.441738 C341.878709,74.2195147 342.536536,73.8985303 343.12128,73.4787751 C343.706023,73.0590199 344.187211,72.5466793 344.564858,71.941738 C344.942505,71.3367967 345.131326,70.6392729 345.131326,69.8491454 C345.131326,69.0837095 344.954687,68.3985312 344.601405,67.7935899 C344.248122,67.1886486 343.785207,66.6824808 343.212645,66.2750714 C342.640084,65.8676619 341.982257,65.5528503 341.239145,65.3306269 C340.496034,65.1084036 339.73466,64.9972936 338.955002,64.9972936 C338.175344,64.9972936 337.420061,65.1084036 336.689131,65.3306269 C335.958202,65.5528503 335.312557,65.8800075 334.752178,66.3121084 C334.191798,66.7442093 333.741065,67.2627227 333.399965,67.867664 C333.058864,68.4726053 332.888317,69.1577836 332.888317,69.9232195 Z M349.859246,77.441738 C349.859246,76.1824725 350.090703,75.0096447 350.553625,73.9232195 C351.016547,72.8367943 351.662192,71.8861866 352.490579,71.0713677 C353.318966,70.2565488 354.281342,69.6145799 355.377736,69.1454417 C356.474131,68.6763036 357.667965,68.441738 358.959273,68.441738 C360.299311,68.441738 361.529691,68.6886492 362.650449,69.1824788 C363.771208,69.6763084 364.745766,70.3800051 365.574153,71.2935899 C366.40254,72.2071747 367.048185,73.3306203 367.511107,74.6639603 C367.974029,75.9973003 368.205486,77.4911125 368.205486,79.1454417 C368.205486,81.9108877 367.974029,84.3059254 367.511107,86.3306269 C367.048185,88.3553284 366.40254,90.034324 365.574153,91.367664 C364.745766,92.701004 363.752935,93.6886484 362.59563,94.3306269 C361.438325,94.9726054 360.165308,95.2935899 358.776542,95.2935899 C357.022311,95.2935899 355.469109,94.8368043 354.116889,93.9232195 C352.76467,93.0096347 351.759656,91.7627336 351.10182,90.1824788 L352.38094,89.1824788 C352.868227,90.5158188 353.696601,91.5898821 354.866088,92.404701 C356.035576,93.2195199 357.339047,93.6269232 358.776542,93.6269232 C359.921665,93.6269232 360.963224,93.3491482 361.90125,92.7935899 C362.839277,92.2380316 363.637196,91.4232249 364.295033,90.3491454 C364.952869,89.275066 365.470603,87.9602643 365.84825,86.404701 C366.225897,84.8491377 366.414718,83.0713777 366.414718,81.0713677 C366.14671,81.8614951 365.756887,82.5837101 365.245236,83.2380343 C364.733586,83.8923586 364.14276,84.4540814 363.472741,84.9232195 C362.802722,85.3923577 362.065713,85.7565516 361.26169,86.0158121 C360.457668,86.2750727 359.617111,86.404701 358.739996,86.404701 C357.497415,86.404701 356.340128,86.1701354 355.268098,85.7009973 C354.196068,85.2318592 353.258055,84.5898903 352.454033,83.7750714 C351.65001,82.9602525 351.016547,82.0096447 350.553625,80.9232195 C350.090703,79.8367943 349.859246,78.6763121 349.859246,77.441738 Z M358.922727,70.1084047 C357.92379,70.1084047 356.979687,70.2997608 356.090389,70.6824788 C355.201092,71.0651967 354.427536,71.5898829 353.769699,72.2565529 C353.111863,72.9232229 352.588038,73.7009929 352.198209,74.5898862 C351.80838,75.4787795 351.613468,76.4293873 351.613468,77.441738 C351.613468,78.4540888 351.80838,79.4046966 352.198209,80.2935899 C352.588038,81.1824832 353.111863,81.9602532 353.769699,82.6269232 C354.427536,83.2935932 355.201092,83.8244521 356.090389,84.2195158 C356.979687,84.6145795 357.92379,84.8121084 358.922727,84.8121084 C359.921664,84.8121084 360.865767,84.6145795 361.755065,84.2195158 C362.644363,83.8244521 363.417918,83.2935932 364.075755,82.6269232 C364.733591,81.9602532 365.257416,81.1824832 365.647246,80.2935899 C366.037075,79.4046966 366.231986,78.4540888 366.231986,77.441738 C366.231986,76.4540788 366.037075,75.5158166 365.647246,74.6269232 C365.257416,73.7380299 364.733591,72.9602599 364.075755,72.2935899 C363.417918,71.6269199 362.644363,71.096061 361.755065,70.7009973 C360.865767,70.3059336 359.921664,70.1084047 358.922727,70.1084047 Z" id="1989"></path>
                    <path d="M94.0084251,116.845018 C95.1842517,116.845018 96.5070565,119.944649 96.5070565,124.815498 C96.5070565,150.940959 73.7254177,202.158672 60.791326,202.158672 C52.1196054,202.158672 47.1223427,195.811808 47.1223427,187.103321 C47.1223427,179.575646 48.1511909,171.01476 49.620974,162.601476 C43.8888198,169.833948 37.5687522,177.361624 31.8365979,184.151292 C28.4560967,201.420664 22.8709207,215 14.9340917,215 C12.8763953,215 11.8475471,213.671587 11.8475471,211.309963 C11.8475471,208.062731 15.6689833,202.158672 21.4011376,194.778598 C24.0467472,177.361624 25.5165304,152.121771 25.5165304,139.723247 C25.5165304,125.99631 24.9286171,115.95941 16.8448098,115.95941 C9.05495912,115.95941 3.32280483,134.114391 3.32280483,137.804428 L3.32280483,138.837638 C3.32280483,138.837638 2,138.98524 2,137.656827 C2,134.409594 7.73215428,114.630996 16.6978315,114.630996 C30.8077497,114.630996 35.8050124,126.143911 35.8050124,140.756458 C35.8050124,153.302583 34.6291859,168.210332 32.2775329,181.346863 C38.1566655,174.261993 44.6237113,166.734317 50.2088873,159.501845 C54.1773018,140.756458 60.791326,123.929889 66.0825453,123.929889 C67.5523285,123.929889 68.8751333,125.110701 68.728155,128.505535 C68.5811767,133.523985 65.494632,140.01845 60.791326,147.250923 C58.8806079,160.092251 57.2638464,175.885609 57.2638464,187.103321 C57.2638464,192.269373 57.1168681,200.830258 60.6443477,200.830258 C72.5495912,200.830258 95.1842517,150.645756 95.1842517,124.815498 C95.1842517,120.092251 93.2735336,117.140221 93.2735336,117.140221 C93.4205119,116.99262 93.7144685,116.845018 94.0084251,116.845018 Z M66.2295236,125.258303 C65.0536971,125.258303 63.142979,133.228782 61.3792392,143.856089 C64.9067188,137.95203 67.2583718,132.638376 67.4053501,128.505535 C67.4053501,127.472325 67.2583718,125.258303 66.2295236,125.258303 Z M14.9340917,213.671587 C17.2857448,213.671587 19.3434412,207.02952 20.9602026,197.583026 C16.2568965,203.634686 13.1703519,208.505535 13.1703519,211.309963 C13.1703519,212.785978 13.9052435,213.671587 14.9340917,213.671587 Z M125.562315,143.856089 C122.034836,143.856089 120.418074,142.232472 120.418074,140.01845 C120.418074,136.623616 123.063684,132.638376 127.179077,132.638376 C130.706556,132.638376 131.735404,134.114391 131.735404,136.476015 C131.735404,140.461255 128.501882,143.856089 125.562315,143.856089 Z M133.940079,175.147601 C134.381014,175.147601 134.527992,175.590406 134.527992,175.590406 L133.646123,177.066421 C131.588426,180.608856 121.593901,195.369004 111.305419,195.369004 C104.985351,195.369004 102.192763,192.416974 102.192763,187.398524 C102.192763,182.380074 108.365852,168.505535 111.452397,161.125461 C105.132329,169.686347 86.0251485,193.892989 70.5924255,193.892989 C69.8575339,193.892989 69.5635773,193.745387 69.5635773,193.302583 C69.5635773,193.00738 69.7105556,192.859779 69.8575339,192.712177 C87.7888883,192.712177 109.982614,160.97786 113.363115,156.697417 C113.80405,156.254613 115.56779,155.516605 117.33153,155.516605 C120.124118,155.516605 121.005987,157.140221 121.005987,159.649446 C121.005987,163.634686 109.541679,186.070111 109.541679,191.383764 C109.541679,193.154982 110.276571,194.04059 111.599375,194.04059 C120.124118,194.04059 130.559578,179.870849 132.617274,176.328413 C133.058209,175.590406 133.499144,175.147601 133.940079,175.147601 Z M183.278345,175.147601 C183.71928,175.147601 183.866259,175.590406 183.866259,175.590406 L182.984389,177.066421 C178.428061,184.446494 172.40195,195.516605 162.260446,195.516605 C156.528292,195.516605 151.090094,192.121771 151.090094,180.313653 C151.090094,178.542435 151.237073,176.476015 151.531029,174.261993 C142.418374,182.97048 128.455434,193.892989 117.138104,193.892989 C116.403212,193.892989 116.109256,193.745387 116.109256,193.302583 C116.109256,193.00738 116.256234,192.859779 116.403212,192.712177 C128.308456,192.712177 142.712331,181.051661 151.971964,172.04797 C156.969227,144.298893 182.83741,95 197.68222,95 C200.32783,95 201.650635,96.7712177 201.650635,99.4280443 C201.650635,114.188192 182.690432,142.232472 161.672533,171.752768 C160.790663,177.214022 160.20275,182.380074 160.20275,186.808118 C160.20275,192.121771 161.378577,194.188192 163.289295,194.188192 C170.932167,194.188192 177.252235,183.856089 181.955541,176.328413 C182.396476,175.590406 182.83741,175.147601 183.278345,175.147601 Z M197.976177,96.3284133 C187.687695,96.3284133 168.580514,137.066421 162.260446,168.800738 C182.690432,139.723247 200.32783,113.597786 200.32783,99.4280443 C200.32783,97.5092251 199.298982,96.3284133 197.976177,96.3284133 Z M232.616612,175.147601 C233.057547,175.147601 233.204525,175.590406 233.204525,175.590406 L232.322655,177.066421 C227.766327,184.446494 221.740216,195.516605 211.598713,195.516605 C205.866558,195.516605 200.428361,192.121771 200.428361,180.313653 C200.428361,178.542435 200.575339,176.476015 200.869296,174.261993 C191.75664,182.97048 177.7937,193.892989 166.47637,193.892989 C165.741478,193.892989 165.447522,193.745387 165.447522,193.302583 C165.447522,193.00738 165.5945,192.859779 165.741478,192.712177 C177.646722,192.712177 192.050597,181.051661 201.310231,172.04797 C206.307493,144.298893 232.175677,95 247.020487,95 C249.666096,95 250.988901,96.7712177 250.988901,99.4280443 C250.988901,114.188192 232.028698,142.232472 211.010799,171.752768 C210.128929,177.214022 209.541016,182.380074 209.541016,186.808118 C209.541016,192.121771 210.716843,194.188192 212.627561,194.188192 C220.270433,194.188192 226.590501,183.856089 231.293807,176.328413 C231.734742,175.590406 232.175677,175.147601 232.616612,175.147601 Z M247.314443,96.3284133 C237.025961,96.3284133 217.91878,137.066421 211.598713,168.800738 C232.028698,139.723247 249.666096,113.597786 249.666096,99.4280443 C249.666096,97.5092251 248.637248,96.3284133 247.314443,96.3284133 Z M270.784526,143.856089 C273.724092,143.856089 276.957615,140.461255 276.957615,136.476015 C276.957615,134.114391 275.928767,132.638376 272.401287,132.638376 C268.285895,132.638376 265.640285,136.623616 265.640285,140.01845 C265.640285,142.232472 267.257046,143.856089 270.784526,143.856089 Z M279.16229,175.147601 C279.603225,175.147601 279.750203,175.590406 279.750203,175.590406 L278.868333,177.066421 C276.810637,180.608856 266.816111,195.369004 256.527629,195.369004 C250.207562,195.369004 247.414974,192.416974 247.414974,187.398524 C247.414974,182.380074 253.588063,168.505535 256.674608,161.125461 C250.35454,169.686347 231.247359,193.892989 215.814636,193.892989 C215.079745,193.892989 214.785788,193.745387 214.785788,193.302583 C214.785788,193.00738 214.932766,192.859779 215.079745,192.712177 C233.011099,192.712177 255.204825,160.97786 258.585326,156.697417 C259.026261,156.254613 260.790001,155.516605 262.55374,155.516605 C265.346328,155.516605 266.228198,157.140221 266.228198,159.649446 C266.228198,163.634686 254.76389,186.070111 254.76389,191.383764 C254.76389,193.154982 255.498781,194.04059 256.821586,194.04059 C265.346328,194.04059 275.781789,179.870849 277.839485,176.328413 C278.28042,175.590406 278.721355,175.147601 279.16229,175.147601 Z M344.521192,175.147601 C344.962127,175.147601 345.109106,175.590406 345.109106,175.590406 L344.227236,177.066421 C340.4058,183.118081 331.146166,199.649446 321.004662,199.649446 C317.036248,199.649446 313.655746,197.287823 313.655746,191.97417 C313.655746,188.136531 315.566464,182.380074 318.065096,176.623616 C314.390638,181.494465 308.07057,189.02214 302.485394,189.02214 C296.459283,189.02214 291.315042,186.95572 291.315042,180.166052 C291.315042,177.804428 291.755977,175.590406 292.637847,173.376384 C285.729866,181.937269 271.619948,198.616236 262.360314,198.616236 C261.625423,198.616236 261.331466,198.321033 261.331466,197.878229 C261.331466,197.583026 261.478444,197.435424 261.625423,197.287823 C273.824623,197.287823 292.637847,170.276753 296.459283,166.881919 C301.603524,160.535055 309.540353,156.107011 316.595313,156.107011 C321.15164,156.107011 324.67912,158.173432 326.001925,159.501845 L326.883795,157.583026 C327.32473,157.140221 329.088469,156.254613 330.999187,156.254613 C333.644797,156.254613 335.555515,157.730627 335.555515,160.682657 C335.555515,162.749077 319.681857,190.202952 319.681857,195.95941 C319.681857,197.583026 320.26977,198.321033 321.298619,198.321033 C329.676383,198.321033 339.376951,182.380074 343.198388,176.328413 C343.639323,175.590406 344.080257,175.147601 344.521192,175.147601 Z M302.779351,187.841328 C308.95244,187.841328 319.093944,173.523985 319.975814,172.04797 C322.180489,167.324723 324.238185,163.191882 325.56099,160.387454 C324.385163,159.354244 322.621423,158.911439 321.298619,158.911439 C306.747765,158.911439 300.574676,177.066421 300.574676,184.298893 C300.574676,186.070111 301.015611,187.841328 302.779351,187.841328 Z M438.099931,175.147601 C438.540866,175.147601 438.687845,175.590406 438.687845,175.590406 L437.805975,177.066421 C434.866409,181.642066 426.635623,197.730627 418.845772,197.730627 C413.995488,197.730627 409.145203,194.778598 409.145203,187.546125 C409.145203,177.95203 420.462534,162.453875 420.462534,158.468635 C420.462534,157.730627 420.315555,157.140221 419.580664,157.140221 C410.614987,157.140221 391.801762,187.841328 389.744066,191.236162 C388.715218,193.597786 388.127304,195.221402 388.127304,195.95941 C387.980326,195.95941 386.510543,196.697417 384.452846,196.697417 C381.954215,196.697417 380.778389,194.630996 380.778389,192.712177 C380.778389,186.512915 398.415786,157.730627 398.415786,149.464945 C398.415786,149.02214 398.12183,148.726937 397.827873,148.726937 C392.242697,148.726937 376.222061,176.476015 366.227535,190.940959 C364.904731,193.597786 364.022861,195.516605 364.022861,195.95941 C363.875882,196.107011 363.140991,196.697417 360.348403,196.697417 C358.437685,196.697417 357.261858,195.073801 357.261858,192.859779 C357.261858,187.250923 370.636885,166.291513 370.636885,159.059041 C370.636885,157.583026 369.755015,157.287823 368.873145,157.287823 C355.498118,157.287823 342.27007,193.892989 327.719217,193.892989 C326.984325,193.892989 326.690369,193.745387 326.690369,193.302583 C326.690369,193.00738 326.837347,192.859779 326.984325,192.712177 C341.829135,192.712177 354.616249,155.95941 369.020123,155.95941 C372.253646,155.95941 375.781126,158.763838 375.781126,163.339483 C375.781126,169.095941 372.547603,177.214022 369.461058,184.00369 C379.308605,169.095941 391.213849,147.398524 398.562765,147.398524 C401.208374,147.398524 404.147941,148.579336 404.147941,153.00738 C404.147941,160.092251 398.709743,172.343173 394.153415,181.937269 C400.914418,171.605166 412.231748,155.811808 419.87462,155.811808 C423.696057,155.811808 425.900731,157.730627 425.900731,160.682657 C425.900731,170.867159 415.465271,184.889299 415.465271,192.121771 C415.465271,194.926199 416.347141,196.402214 418.99275,196.402214 C425.312818,196.402214 433.690582,181.346863 436.777127,176.328413 C437.218062,175.590406 437.658996,175.147601 438.099931,175.147601 Z M481.412087,175.147601 C481.853022,175.147601 482,175.590406 482,175.590406 L481.11813,177.066421 C475.679932,185.774908 472.740366,190.645756 464.950515,195.369004 C462.451884,203.929889 455.249947,208.210332 449.517792,208.210332 C446.872183,208.210332 445.255421,206.734317 445.255421,204.372694 C445.255421,200.535055 449.370814,199.354244 455.984838,196.549815 C456.425773,194.335793 456.572752,191.826568 456.572752,188.726937 C456.572752,180.904059 455.396925,177.509225 454.95599,171.162362 C448.341966,182.084871 435.407874,195.369004 422.179826,195.369004 C421.150978,195.369004 420.269108,195.369004 420.269108,194.630996 C420.269108,194.188192 420.563064,194.04059 420.563064,194.04059 L422.179826,194.04059 C435.701831,194.04059 448.782901,179.428044 454.95599,168.653137 L454.95599,168.210332 C454.95599,153.745387 462.745841,151.383764 466.567277,151.383764 C467.15519,151.383764 467.449147,151.678967 467.449147,152.121771 C467.449147,152.416974 467.302169,152.564576 467.302169,152.564576 C463.333754,152.564576 461.276058,155.664207 461.276058,159.059041 C461.276058,168.505535 465.832385,177.656827 465.832385,188.726937 C465.832385,190.498155 465.685407,192.121771 465.39145,193.597786 C471.858496,189.317343 474.945041,184.594096 480.089282,176.328413 C480.530217,175.590406 480.971152,175.147601 481.412087,175.147601 Z M449.517792,206.881919 C451.722467,206.881919 454.368077,204.372694 455.690882,198.02583 C449.958727,200.535055 446.578226,201.863469 446.578226,204.520295 C446.578226,205.848708 447.460096,206.881919 449.517792,206.881919 Z" id="Williams"></path>
                </g>
            </g>
        </g>
    </g>
</svg>
